<?xml version="1.0" encoding="UTF-8"?>
<svg width="73px" height="82px" viewBox="0 0 73 82" version="1.1" xmlns="http://www.w3.org/2000/svg" xmlns:xlink="http://www.w3.org/1999/xlink">
    <title>puppy</title>
    <g id="Page-1" stroke="none" stroke-width="1" fill="none" fill-rule="evenodd">
        <g id="puppy" fill="#000000" fill-rule="nonzero">
            <path d="M34.93,38.6 C32.3966667,38.9666667 31.13,39.8166667 31.13,41.15 C31.2825505,42.59596 32.320402,43.7934811 33.73,44.15 C34.8521344,44.5440627 36.0446788,44.6973899 37.23,44.6 C38.3596649,44.3284462 39.3957194,43.7586163 40.23,42.95 C41.2567651,42.2203498 41.8260137,41.0059528 41.73,39.75 C41.5633333,38.55 41.13,37.8833333 40.43,37.75 C39.5259109,37.6273117 38.606145,37.6954425 37.73,37.95 C38.2113742,37.8057845 38.7250079,38.0412 38.93,38.5 C39.1146604,39.2083143 38.92626,39.9619158 38.43,40.5 C37.9816687,41.2100923 37.2562327,41.6997616 36.43,41.85 C35.4674882,41.8557832 34.5519245,41.4346239 33.93,40.7 C32.9966667,39.8666667 33.2966667,39.15 34.83,38.55 M27.53,32.15 C27.2360281,31.7674072 26.7567332,31.5756893 26.28,31.65 C25.9133333,31.75 25.6466667,32.0833333 25.48,32.65 C25.2981506,33.3381896 25.2981506,34.0618104 25.48,34.75 C25.6446658,35.4292966 25.990232,36.0513157 26.48,36.55 C26.9133333,37.0166667 27.3133333,37.2 27.68,37.1 C28.0466667,37 28.33,36.6333333 28.53,36 C28.6476147,35.3312583 28.5960491,34.643717 28.38,34 C28.2245076,33.3229444 27.9167091,32.6902474 27.48,32.15 M25.93,33 C26.0836123,32.7027004 26.3562319,32.4846048 26.68,32.4 C26.986658,32.302249 27.3216211,32.3580762 27.58,32.55 C27.8933278,32.8094682 28.1200795,33.158317 28.23,33.55 C28.3318166,33.9332637 28.2964427,34.3400632 28.13,34.7 C28.0588761,35.0352825 27.8091027,35.3042693 27.48,35.4 C27.1266131,35.4544761 26.7661761,35.3643668 26.48,35.15 C26.1930493,34.88515 26.0000091,34.5341678 25.93,34.15 C25.7966667,33.7611111 25.7966667,33.3388889 25.93,32.95 M43.13,29.1 C42.8267535,28.7596537 42.3851947,28.5756708 41.93,28.6 C41.5633333,28.7 41.2966667,29.0666667 41.13,29.7 C41.0093418,30.3685872 41.0609645,31.0568898 41.28,31.7 C41.4119486,32.3604569 41.7038001,32.9784951 42.13,33.5 C42.63,34 43.0633333,34.1833333 43.43,34.05 C43.7966667,33.9166667 44.0633333,33.5666667 44.23,33 C44.4029288,32.3445475 44.4029288,31.6554525 44.23,31 C44.0614668,30.292756 43.7175609,29.6393348 43.23,29.1 M42.03,29.5 C42.3623662,29.3894234 42.7261116,29.4257979 43.03,29.6 C43.306339,29.8811385 43.5119785,30.223871 43.63,30.6 C43.748794,30.9741298 43.748794,31.3758702 43.63,31.75 C43.4881878,32.0597463 43.2397463,32.3081878 42.93,32.45 C42.566778,32.5457524 42.1805327,32.4298787 41.93,32.15 C41.5917856,31.9136351 41.3587034,31.555047 41.28,31.15 C41.161206,30.7758702 41.161206,30.3741298 41.28,30 C41.4075207,29.741647 41.647581,29.5569853 41.93,29.5 L42.03,29.5 Z" id="Shape"></path>
            <path d="M43.29,81.81 C42.4062535,81.8627966 41.521774,81.7193675 40.7,81.39 C40.655618,81.3663365 40.6151439,81.3359809 40.58,81.3 C40.3161145,81.0018614 40.100201,80.6644967 39.94,80.3 C39.6268323,79.5097478 39.4575006,78.6698625 39.44,77.82 C37.4701808,78.5937123 35.3490711,78.9050365 33.24,78.73 L31.14,78.22 L31.14,79.22 C31.1487663,79.2729731 31.1487663,79.3270269 31.14,79.38 C30.7,80.67 29.08,81.38 26.21,81.62 L22.32,81.62 C19.03,81.91 17.16,81.57 16.51,80.54 C15.8609078,79.4850816 15.6025667,78.2358429 15.78,77.01 C14.707335,76.8589734 13.6565552,76.5803322 12.65,76.18 C10.08,75.18 8.83,73.99 8.83,72.51 L9.29,70.16 C9.50687525,69.0759935 9.95732111,68.0522529 10.61,67.16 C10.139766,66.238084 9.82551149,65.2446344 9.68,64.22 C9.51056844,62.95472 9.58181906,61.668816 9.89,60.43 C10.5342651,57.2322285 12.0302798,54.267839 14.22,51.85 C15.2970457,50.5511201 15.8212977,48.8814136 15.68,47.2 L15.68,47.2 L15.22,45.7 C13.93,47.11 13.02,47.7 12.26,47.59 L12.26,47.59 C11.3599558,47.4530545 10.652101,46.7492446 10.51,45.85 C10.1207723,44.2336159 10.022572,42.5608234 10.22,40.91 C8.41092239,40.3749436 6.66945753,39.633395 5.03,38.7 C1.43,36.7 -0.26,34.34 0.03,31.76 C0.540932556,28.9533608 1.42897559,26.2286833 2.67,23.66 C5.34,17.87 9.08,13.89 13.77,11.81 C15.1780008,11.130819 16.7420985,10.8407876 18.3,10.97 C19.5308337,10.9943792 20.7578899,11.1147444 21.97,11.33 C21.106742,10.6736691 20.4421691,9.79103312 20.05,8.78 C19.9849403,8.5862602 20.0443381,8.37242823 20.2,8.24 C21.26,7.34 22.98,7.34 25.45,8.24 C26.2583926,8.5466651 27.0466258,8.90404205 27.81,9.31 C27.63,6.03 28.01,3.74 28.96,2.31 C29.3557467,1.55573665 30.1108867,1.05734424 30.96,0.99 C31.0162512,0.980296042 31.0737488,0.980296042 31.13,0.99 C32.81,1.6 33.66,3.31 33.66,6.06 C33.66,6.57333333 33.6366667,7.07666667 33.59,7.57 C34.4478808,6.43255337 35.5389044,5.49154552 36.79,4.81 C37.4211721,4.43853045 38.1490498,4.26439702 38.88,4.31 C39.0175963,4.3296973 39.1407833,4.40578334 39.22,4.52 C39.8131812,5.51774916 39.7419843,6.7755621 39.04,7.7 C45.0130668,4.52224753 52.2693555,4.99464199 57.78,8.92 C61.93,11.7 64.8,14.7 66.33,17.78 C67.0478106,18.9909578 67.4276752,20.3722836 67.43,21.78 C67.19,24.36 65.06,27.38 60.94,31.03 C61.5716829,32.4472961 61.9733902,33.9562302 62.13,35.5 C62.2886365,36.2877193 62.0492752,37.1030438 61.49,37.68 C60.9652968,38.0430902 60.2944933,38.1217878 59.7,37.89 C59.0933793,37.6729321 58.5383615,37.3324304 58.07,36.89 C58.0833564,39.9460264 57.6073317,42.9844814 56.66,45.89 C56.35,46.89 56.04,47.69 55.73,48.43 L60.81,58.82 C61.5769285,57.8645132 62.1693349,56.7812558 62.56,55.62 C63.74,52.49 63.91,50.05 63.08,48.36 C63.0118179,48.2222684 63.0107634,48.0608327 63.0771403,47.9222221 C63.1435172,47.7836115 63.2699507,47.6832265 63.42,47.65 C64.63,47.37 66.03,47.94 67.7,49.36 C69.7,51.01 70.64,53.42 70.49,56.54 C71.0218086,56.2117039 71.3381729,55.6247148 71.32,55 C71.31753,54.749034 71.5014919,54.5351248 71.75,54.5 C71.9937027,54.4689697 72.2248945,54.6160918 72.3,54.85 L72.7,56.2 C72.9178381,57.297603 72.9381563,58.425262 72.76,59.53 C72.18,62.53 69.96,64.53 66.14,65.42 L68.01,66.42 C68.0727528,66.4546571 68.1273195,66.502403 68.17,66.56 C68.4649224,66.9036652 68.5350351,67.3866636 68.35,67.8 C68.03,68.47 66.93,69.28 61.35,69.67 C61.6618321,70.8953848 61.8560453,72.1477251 61.93,73.41 C61.9357738,73.453141 61.9357738,73.496859 61.93,73.54 C61.73,74.73 60.46,75.62 58.07,76.29 L54.97,76.83 L54.97,77.83 C54.72,79.01 53.78,79.83 52.16,80.29 C50.7960947,80.815325 49.3770353,81.1843475 47.93,81.39 C46.3951058,81.6387128 44.8446063,81.7790597 43.29,81.81 L43.29,81.81 Z M41.23,80.54 C41.88,80.83 43.55,81.02 47.76,80.4 C49.1501977,80.222081 50.515643,79.8865907 51.83,79.4 C53.12,79.01 53.83,78.46 53.99,77.75 L53.99,76.4 L53.99,72.94 C53.7478019,71.3020925 54.0799325,69.6308399 54.93,68.21 C55.0625483,67.9669947 55.3669947,67.8774517 55.61,68.01 C55.8530053,68.1425483 55.9425483,68.4469947 55.81,68.69 C55.1944798,69.7292264 54.8891316,70.9228603 54.93,72.13 C56.2190557,71.0153327 57.3947718,69.7759739 58.44,68.43 L59.36,67.26 C60.101962,66.2115892 60.6350078,65.030061 60.93,63.78 C61.1237529,62.44288 60.8818146,61.0789088 60.24,59.89 L60.24,59.89 L60.24,59.89 L55.15,49.47 C54.79,49.98 54.44,50.22 54.06,50.22 L54.06,50.22 C53.64,50.22 53.29,49.92 53.06,49.35 C52.8212056,48.8419415 52.6529817,48.303625 52.56,47.75 C49.4,51.9 47.12,53.87 45.42,53.9 C44.7365462,53.9098653 44.1106234,53.5186635 43.82,52.9 C43.8161109,52.8634365 43.8161109,52.8265635 43.82,52.79 L43.82,52.7 C42.0489445,53.5333963 40.1263015,53.9961918 38.17,54.06 L34.78,54.19 C35.0054117,55.0039322 34.7806482,55.8763191 34.19,56.48 C33.29,57.24 31.63,57.06 28.98,55.92 L24.26,53.29 C24.713466,54.0031173 24.907676,54.8505794 24.81,55.69 C24.6904974,56.2047517 24.191118,56.5376714 23.67,56.45 L23.54,56.45 C22.3166918,55.9630701 21.1918257,55.2583347 20.22,54.37 L16.5,56.7 C16.1804154,56.9287908 15.8884624,57.1938975 15.63,57.49 C16.3560914,57.5149516 17.0823126,57.4443468 17.79,57.28 C17.9793653,57.2451858 18.1718968,57.3221968 18.2850158,57.4780022 C18.3981348,57.6338076 18.4117415,57.8407229 18.32,58.01 L16.62,61.11 C15.52,63.34 15.3,64.57 15.36,65.24 L15.78,65.31 C16.604933,65.0384325 17.3111911,64.4910825 17.78,63.76 C17.9136075,63.5934094 18.1382692,63.5300611 18.339224,63.6023145 C18.5401788,63.6745679 18.6730642,63.8664725 18.67,64.08 L18.62,66.83 C18.7,68.37 19.05,69.42 19.62,69.83 C19.7292369,69.8023649 19.8337261,69.7585468 19.93,69.7 C20.3473948,69.3820847 20.5887085,68.8846072 20.58,68.36 C20.5983704,68.142738 20.7554093,67.9624313 20.9680917,67.9144063 C21.1807742,67.8663812 21.400054,67.9617127 21.51,68.15 L23.31,71.15 C25.3598931,73.6555239 27.9156099,75.7000973 30.81,77.15 L33.4,77.78 C35.5702075,77.9369304 37.7453963,77.5520629 39.73,76.66 C43.43,75.04 46.9,71.88 50.07,67.28 C50.1883221,67.1069609 50.4020215,67.0261002 50.6052556,67.0774671 C50.8084897,67.1288339 50.9581054,67.3015215 50.98,67.51 L51.17,69.23 C51.8664633,67.2988025 52.424541,65.3204673 52.84,63.31 C52.8850849,63.1008958 53.0581946,62.9436342 53.2706542,62.9187719 C53.4831137,62.8939096 53.6878551,63.0069546 53.78,63.2 L54.78,65.35 C55.11,65.86 55.3,65.95 55.34,65.97 C55.4412005,65.8215084 55.521927,65.6600553 55.58,65.49 C55.5348738,64.7840992 55.3935686,64.0876661 55.16,63.42 C54.4787801,61.5085953 53.4251055,59.7513379 52.06,58.25 C51.9176699,58.089547 51.8935296,57.856191 52,57.67 C52.1113316,57.484635 52.3292031,57.3918379 52.54,57.44 C53.4368268,57.7269902 54.3832505,57.8257179 55.32,57.73 C54.0130054,56.4388969 52.5360683,55.3320352 50.93,54.44 C50.6842333,54.3129745 50.5879746,54.0107667 50.7150001,53.765 C50.8420255,53.5192333 51.1442333,53.4229745 51.39,53.55 C53.1526102,54.5129155 54.77167,55.7179538 56.2,57.13 C56.2575223,57.1823593 56.3020355,57.2474169 56.33,57.32 C56.4674091,57.6541486 56.4138893,58.0364332 56.19,58.32 C55.92,58.62 55.4,58.88 53.72,58.64 C54.7617184,59.9792269 55.5790242,61.4787467 56.14,63.08 C56.4234517,63.8710163 56.5852921,64.7004483 56.62,65.54 C56.6284181,65.5930012 56.6284181,65.6469988 56.62,65.7 C56.53,65.98 56.24,66.85 55.52,66.94 C54.8,67.03 54.31,66.34 53.97,65.82 L53.5,64.82 C52.07,70.61 51.5,70.71 51.09,70.82 C50.7985884,70.8607925 50.512213,70.7176048 50.37,70.46 C50.3277445,70.396977 50.3003869,70.3251634 50.29,70.25 L50.14,68.9 C47.6748981,72.5145377 44.3343281,75.4457072 40.43,77.42 C40.4071908,78.2661278 40.5498616,79.1085649 40.85,79.9 C40.9519727,80.1270607 41.07946,80.3417761 41.23,80.54 L41.23,80.54 Z M16.78,76.61 C16.5349114,77.7482117 16.716402,78.9367974 17.29,79.95 C17.5,80.27 18.36,80.95 22.29,80.59 L26.19,80.59 C28.45,80.42 29.84,79.9 30.19,79.1 L30.19,77.9 C27.2175135,76.3953002 24.5942166,74.2830351 22.49,71.7 L21.26,69.62 C21.0871081,69.9603248 20.8286408,70.2498081 20.51,70.46 C20.2251843,70.6891342 19.8751086,70.822163 19.51,70.84 C19.4262882,70.84 19.3438634,70.8193938 19.27,70.78 C18.27,70.22 17.73,68.92 17.62,66.78 L17.62,65.32 C17.142265,65.8027195 16.5279797,66.1273134 15.86,66.25 L15.71,66.25 L14.86,66.1 C14.6679524,66.0681042 14.5118793,65.9276384 14.46,65.74 C14.16,64.64 14.58,62.95 15.74,60.59 L16.93,58.4 C15.48,58.58 14.8,58.4 14.57,57.91 C14.27,57.23 15.03,56.52 15.9,55.85 L19.36,53.61 C18.1593987,52.3208088 17.1765577,50.8448586 16.45,49.24 C16.1884422,50.4127898 15.6692318,51.5126961 14.93,52.46 C12.8485842,54.7591678 11.4283577,57.5788875 10.82,60.62 C10.5429772,61.7346327 10.4785188,62.8914917 10.63,64.03 C10.7768522,65.0606849 11.1160713,66.0545971 11.63,66.96 L11.63,66.96 C12.5222241,68.5567491 13.7713925,69.9257007 15.28,70.96 L15.07,70.41 L14.48,69.14 C14.4049742,68.9774442 14.4223701,68.7872106 14.5256347,68.6409584 C14.6288993,68.4947063 14.8023443,68.4146547 14.9806347,68.4309584 C15.158925,68.4472621 15.3149742,68.5574442 15.39,68.72 L15.99,70.02 C16.2754497,70.6614014 16.4900533,71.3320376 16.63,72.02 L16.63,72.02 L16.78,73.56 C16.8502127,74.5587675 16.8502127,75.5612325 16.78,76.56 L16.78,76.61 Z M11.1,68.06 C10.6860632,68.7830921 10.3858825,69.5655854 10.21,70.38 L9.77,72.6 C9.77,73.5 10.85,74.42 12.96,75.24 C13.8769695,75.6040381 14.833522,75.8591188 15.81,76 C15.81,75.37 15.81,74.59 15.81,73.68 L15.69,72.4 C13.8510385,71.3196497 12.2815429,69.8356386 11.1,68.06 L11.1,68.06 Z M55.03,73.25 L55.03,75.8 L57.89,75.3 C59.72,74.79 60.8,74.14 60.97,73.41 C60.8735601,72.0311375 60.6151144,70.6684242 60.2,69.35 L60.2,69.35 C60.0957963,69.0011683 59.9514995,68.6655945 59.77,68.35 L59.22,69.05 C56.8,71.96 55.67,72.93 55.03,73.25 Z M60.4,67.5 C60.6683498,67.8665427 60.880674,68.2709698 61.03,68.7 C66.73,68.33 67.39,67.54 67.46,67.39 C67.4801076,67.3454993 67.4801076,67.2945007 67.46,67.25 L64.52,65.61 C64.3344169,65.5067666 64.2342911,65.2975657 64.2702977,65.088277 C64.3063044,64.8789883 64.4705871,64.7152771 64.68,64.68 C68.92,63.98 71.26,62.23 71.82,59.33 C71.9656893,58.4459622 71.9656893,57.5440378 71.82,56.66 C71.3841213,57.201218 70.8057179,57.6099102 70.15,57.84 C69.9870229,57.9040971 69.8023893,57.8782534 69.6632747,57.7718716 C69.52416,57.6654898 69.4508435,57.4940776 69.47,57.32 C69.82,54.07 69.05,51.71 67.1,50.11 C66.3253112,49.3466244 65.3515915,48.8164496 64.29,48.58 C64.92,50.46 64.67,52.94 63.53,55.95 C63.0415224,57.3371722 62.2798409,58.6123087 61.29,59.7 C61.9146685,61.0092573 62.1373761,62.4742561 61.93,63.91 C61.6584772,65.1948289 61.1387586,66.4142995 60.4,67.5 Z M22.93,51.5 C23.013815,51.4991436 23.0964486,51.519802 23.17,51.56 L29.37,55.01 C32.21,56.23 33.18,56.01 33.49,55.7 C33.8,55.39 33.8,54.48 33.64,53.82 C33.6036669,53.6733414 33.6356004,53.5181184 33.726876,53.3977124 C33.8181515,53.2773064 33.9589789,53.204632 34.11,53.2 L38.06,53.05 C40.76,52.83 42.7,52.3 43.78,51.5 C43.9126348,51.4017246 44.0852282,51.3752479 44.2412226,51.4292459 C44.397217,51.483244 44.5165062,51.610757 44.56,51.77 L44.74,52.46 C44.8570585,52.730492 45.1252931,52.9040555 45.42,52.9 C46.42,52.9 48.63,51.57 53.01,45.46 C53.1646397,45.2308018 53.4758018,45.1703603 53.705,45.325 C53.9341981,45.4796397 53.9946397,45.7908018 53.84,46.02 C53.3620498,46.943184 53.3961024,48.0480031 53.93,48.94 C53.9708911,49.042043 54.0283282,49.1366453 54.1,49.22 C54.3417034,48.9097074 54.5495505,48.5744701 54.72,48.22 C55.05,47.47 55.38,46.58 55.72,45.57 C56.7965446,42.3524537 57.231423,38.9549661 57,35.57 C56.9775278,35.3414501 57.1136341,35.1269796 57.33,35.05 C57.5440479,34.9743062 57.7822263,35.0523302 57.91,35.24 C58.4036904,36.0247318 59.1415201,36.6255359 60.01,36.95 C60.2869114,37.0732182 60.6030886,37.0732182 60.88,36.95 C61.1,36.78 61.19,36.31 61.15,35.63 C60.9931364,34.0792699 60.5702856,32.5671557 59.9,31.16 L59.9,31.16 C58.7755614,28.6741428 57.3697074,26.3254606 55.71,24.16 C55.5444549,23.9558458 55.5652377,23.6583731 55.7575624,23.4792214 C55.949887,23.3000696 56.2480846,23.3004099 56.44,23.48 L58.44,25.33 C58.9209121,25.729231 59.5362241,25.9295652 60.16,25.89 C60.4010912,25.8116479 60.5997493,25.6382735 60.71,25.41 C60.6907744,24.8393568 60.5931943,24.2740652 60.42,23.73 C59.8388316,21.881537 58.9162247,20.1584328 57.7,18.65 C56.20092,16.4390602 54.2303026,14.5879777 51.93,13.23 C47.0294268,10.0708519 40.9272617,9.40394862 35.46,11.43 L35.38,11.43 C35.30754,11.4460054 35.23246,11.4460054 35.16,11.43 C35.0901725,11.4108186 35.0253447,11.3766987 34.97,11.33 C34.9505636,11.288785 34.9370951,11.2450123 34.93,11.2 C34.900967,11.1505047 34.8806707,11.0963811 34.87,11.04 C34.8544998,10.9708581 34.8544998,10.8991419 34.87,10.83 C34.8891814,10.7601725 34.9233013,10.6953447 34.97,10.64 L35.03,10.58 L37.37,8.44 C38.45,7.14 38.85,6.09 38.51,5.35 C38.0601317,5.39933317 37.6248085,5.53877263 37.23,5.76 C35.5173281,6.78330771 34.1034883,8.2385282 33.13,9.98 C33.0025179,10.2008849 32.729221,10.2904247 32.4957477,10.187799 C32.2622743,10.0851734 32.1434557,9.82327516 32.22,9.58 C32.5121542,8.44667472 32.6566835,7.28035705 32.65,6.11 C32.65,3.85 32.07,2.5 30.87,2.01 C30.46,2.06 30.07,2.51 29.81,2.89 C28.91,4.22 28.61,6.67 28.9,10.17 C28.9166778,10.3583117 28.8257208,10.5399277 28.6649341,10.6393616 C28.5041474,10.7387954 28.3010281,10.7390425 28.14,10.64 C27.1855758,10.0647775 26.1815678,9.57616031 25.14,9.18 C23.32,8.51 21.99,8.38 21.14,8.8 C21.75,10.07 23.28,11.28 25.68,12.41 L25.68,12.41 L25.78,12.41 C25.9744824,12.5110555 26.0804819,12.7269891 26.0414775,12.9426608 C26.002473,13.1583325 25.8275578,13.3234624 25.61,13.35 C22.7080759,13.7259472 19.9139532,14.692489 17.4,16.19 C11.93,19.46 8.93,24.49 8.48,31.18 L8.23,34.24 C8.20882202,34.7866775 8.4194523,35.3168848 8.81,35.7 C9.16451482,35.8676374 9.57548518,35.8676374 9.93,35.7 C10.5646822,35.0706379 11.0469836,34.3044285 11.34,33.46 C11.3739402,33.2813672 11.5006018,33.1344106 11.6722724,33.0744873 C11.8439431,33.014564 12.034542,33.0507778 12.1722724,33.1694873 C12.3100028,33.2881968 12.3739402,33.4713672 12.34,33.65 L11.24,40.65 C11.0156915,42.3169511 11.0936031,44.0106813 11.47,45.65 C11.524128,46.178244 11.941756,46.595872 12.47,46.65 C12.6,46.65 13.29,46.65 15.05,44.34 C15.1647728,44.1942523 15.3508067,44.1240306 15.5332602,44.1575853 C15.7157136,44.19114 15.8645915,44.3229546 15.92,44.5 L16.67,46.99 C17.4626164,49.3903274 18.8009975,51.574182 20.58,53.37 L20.58,53.37 C21.4905342,54.2616594 22.5631135,54.9710552 23.74,55.46 C23.84,55.24 23.84,54.51 22.5,52.28 C22.3946875,52.1244009 22.3854955,51.9228971 22.476204,51.7583561 C22.5669126,51.593815 22.7422076,51.4940157 22.93,51.5 Z M17.65,11.93 C16.4555418,11.912691 15.2737457,12.1764542 14.2,12.7 C9.71,14.7 6.15,18.5 3.58,24.06 C2.37905936,26.5397534 1.51796831,29.1701175 1.02,31.88 C0.78,33.99 2.3,36 5.52,37.81 C7.03742532,38.6827493 8.64735375,39.383739 10.32,39.9 L10.92,36.05 L10.59,36.43 C10.5405015,36.4862762 10.4789849,36.5307049 10.41,36.56 C9.74053684,36.9138025 8.93946316,36.9138025 8.27,36.56 C7.57528496,35.9851937 7.20250146,35.1091525 7.27,34.21 L7.52,31.08 C8,24.08 11.17,18.75 16.97,15.34 C19.035227,14.1327496 21.270198,13.2428064 23.6,12.7 C21.8605123,12.2147949 20.0657036,11.9559929 18.26,11.93 L17.65,11.93 Z M58.53,26.42 C59.1966667,27.5133333 59.8633333,28.72 60.53,30.04 C64.22,26.7 66.22,23.88 66.43,21.7 C66.3953733,20.4899787 66.0510775,19.3090443 65.43,18.27 C63.97,15.32 61.2,12.48 57.2,9.81 C55.2383854,8.37353395 52.9738171,7.4054481 50.58,6.98 C46.0370396,6.025505 41.3029142,7.06701259 37.58,9.84 C42.6837786,8.61812131 48.0654854,9.55123983 52.46,12.42 C54.8440965,13.8272519 56.8918655,15.738503 58.46,18.02 C59.742514,19.6216757 60.7126769,21.4500597 61.32,23.41 C61.5423845,24.0942938 61.6504992,24.8105539 61.64,25.53 C61.6360628,25.5960168 61.6190681,25.6605966 61.59,25.72 C61.3506218,26.2411288 60.8990564,26.6344276 60.35,26.8 C59.7174251,26.8945709 59.0718846,26.7597878 58.53,26.42 Z M36.53,45.1 C35.5104209,45.069607 34.5003296,44.8945245 33.53,44.58 C31.9405857,44.1857248 30.7520293,42.8624654 30.53,41.24 C30.53,39.54 31.94,38.52 34.73,38.11 L37.46,37.46 L37.56,37.46 C38.4868439,37.2014576 39.4570385,37.1367779 40.41,37.27 C41.33,37.4 41.91,38.2 42.12,39.64 C42.2416848,41.065297 41.6080356,42.4502189 40.45,43.29 C39.547474,44.162117 38.4235844,44.7707464 37.2,45.05 C36.9714908,45.0831381 36.7408995,45.0998476 36.51,45.1 L36.53,45.1 Z M33,39.58 C32.07,39.96 31.6,40.48 31.6,41.15 C31.7782137,42.3506795 32.6623969,43.3256494 33.84,43.62 C34.8920445,43.9877259 36.0087197,44.1341193 37.12,44.05 C38.1564519,43.7882064 39.1052091,43.2569024 39.87,42.51 C40.7687414,41.8886676 41.2740313,40.840096 41.2,39.75 C41.07,38.81 40.78,38.3 40.33,38.24 C39.9998114,38.1838964 39.6641382,38.1671128 39.33,38.19 L39.33,38.29 C39.5790945,39.124767 39.395291,40.0287802 38.84,40.7 C38.3286776,41.5131598 37.50316,42.0779876 36.56,42.26 C35.4615448,42.3209644 34.3924416,41.8925908 33.64,41.09 C33.1638107,40.7706638 32.8933781,40.2221806 32.93,39.65 L33,39.58 Z M35,39.08 C34,39.46 33.93,39.77 33.92,39.83 C33.91,39.89 34.03,40.16 34.28,40.38 C34.8140273,40.9771037 35.5789484,41.3158545 36.38,41.31 C37.0512172,41.1689804 37.6340622,40.7562827 37.99,40.17 C38.42,39.55 38.57,39.05 38.43,38.68 C38.35,38.52 38.22,38.34 37.76,38.44 L37.66,38.44 L35,39.08 Z M27.53,37.7 C26.9932573,37.6539498 26.500189,37.3856626 26.17,36.96 C25.6274178,36.4048804 25.2440404,35.7141102 25.06,34.96 C24.8379519,34.1877242 24.8207205,33.3709536 25.01,32.59 C25.0439677,31.901638 25.5175437,31.3135343 26.1828252,31.1335438 C26.8481067,30.9535532 27.5535998,31.2226621 27.93,31.8 C28.4171307,32.404521 28.7592226,33.1126513 28.93,33.87 C29.1756889,34.6112585 29.2273314,35.4031097 29.08,36.17 C28.9883415,36.8531761 28.5145846,37.4240143 27.86,37.64 C27.753287,37.6750977 27.6422378,37.6952885 27.53,37.7 Z M26.43,35.7 C26.5483683,35.9072627 26.6966269,36.0959554 26.87,36.26 C27.06,36.47 27.37,36.76 27.6,36.7 C27.83,36.64 28.02,36.26 28.1,35.96 C28.1060001,35.8667631 28.1060001,35.7732369 28.1,35.68 C27.9580188,35.7836113 27.7989321,35.8614623 27.63,35.91 C27.2177587,35.9859797 26.7919392,35.9114613 26.43,35.7 L26.43,35.7 Z M27.05,32.88 L26.87,32.88 C26.6663156,32.9290414 26.496608,33.0692346 26.41,33.26 C26.3344391,33.5213141 26.3344391,33.7986859 26.41,34.06 C26.4644379,34.3360421 26.6043843,34.5879456 26.81,34.78 C26.9731405,34.8938527 27.1724748,34.9436863 27.37,34.92 C27.46,34.92 27.58,34.82 27.65,34.58 C27.7844879,34.3071722 27.819843,33.9960472 27.75,33.7 C27.6713441,33.4091971 27.5034662,33.1503854 27.27,32.96 C27.2089417,32.9026941 27.1324797,32.8644631 27.05,32.85 L27.05,32.88 Z M32.93,36.5 C32.7085653,36.4994284 32.5138815,36.3532768 32.4515249,36.1408025 C32.3891683,35.9283282 32.4739935,35.7001467 32.66,35.58 L34.21,34.58 C34.7212018,34.2852751 35.2564482,34.0343783 35.81,33.83 L35.81,33.83 C36.2669976,33.6203938 36.7678817,33.5243338 37.27,33.55 C37.5425654,33.576401 37.7431829,33.817142 37.72,34.09 C37.6886168,34.3599009 37.4511356,34.5578019 37.18,34.54 C36.888976,34.5251903 36.5983763,34.5764726 36.33,34.69 L36.09,35.13 C36.8150928,34.9384545 37.5742801,34.9145162 38.31,35.06 C38.5861424,35.131797 38.751797,35.4138576 38.68,35.69 C38.608203,35.9661424 38.3261424,36.131797 38.05,36.06 C37.4295483,35.9576253 36.7940601,35.9952079 36.19,36.17 C35.74,36.29 35.43,36.38 35.27,36.45 C35.0743666,36.526027 34.8521328,36.474437 34.71,36.32 C34.57228,36.1614547 34.5483107,35.9337463 34.65,35.75 L34.83,35.42 L34.74,35.47 L33.22,36.47 C33.1284599,36.5085867 33.0275005,36.5190308 32.93,36.5 Z M43.13,34.7 C42.579887,34.6443984 42.0735789,34.3750856 41.72,33.95 C41.2254913,33.3768947 40.881779,32.6894701 40.72,31.95 C40.4709332,31.2130653 40.4158307,30.4244097 40.56,29.66 C40.78,28.83 41.17,28.34 41.72,28.19 C42.3580943,28.1046591 42.9982573,28.3316936 43.44,28.8 C43.9946997,29.4055612 44.3869058,30.1418078 44.58,30.94 C44.7852489,31.6963224 44.7852489,32.4936776 44.58,33.25 C44.5110707,33.9079062 44.0536306,34.4599892 43.42,34.65 C43.3261283,34.6800692 43.2285212,34.696898 43.13,34.7 Z M42.27,33.04 C42.3213321,33.1173047 42.3781447,33.1908268 42.44,33.26 C42.75,33.57 43.05,33.73 43.2,33.68 C43.35,33.63 43.59,33.39 43.68,32.99 C43.7493427,32.7358953 43.7829986,32.4733793 43.78,32.21 C43.5832546,32.5703658 43.2692234,32.852641 42.89,33.01 C42.6836807,33.0382765 42.474068,33.0315148 42.27,32.99 L42.27,33.04 Z M41.61,31.18 C41.6719972,31.4486161 41.8325961,31.6841612 42.06,31.84 C42.1956396,32.0118248 42.4140932,32.0961403 42.63,32.06 C42.7785244,31.9377435 42.8980651,31.7840484 42.98,31.61 C43.0561112,31.3487642 43.0561112,31.0712358 42.98,30.81 C42.9006343,30.5377658 42.7642856,30.2855207 42.58,30.07 C42.4309852,29.9969626 42.2608685,29.9792421 42.1,30.02 C41.82,30.08 41.71,30.17 41.64,30.34 C41.5570411,30.5958522 41.5500936,30.8702778 41.62,31.13 L41.61,31.18 Z" id="Shape"></path>
        </g>
    </g>
</svg>